<svg xmlns="http://www.w3.org/2000/svg" viewBox="0 0 512 512" width="512" height="512">
  <defs>
    <radialGradient id="bgGrad" cx="50%" cy="50%" r="50%">
      <stop offset="0%" stop-color="#FCF9F0"/>
      <stop offset="100%" stop-color="#EBE3CF"/>
    </radialGradient>
    <linearGradient id="inkGrad" x1="0%" y1="0%" x2="0%" y2="100%">
      <stop offset="0%" stop-color="#33302B"/>
      <stop offset="100%" stop-color="#1A1815"/>
    </linearGradient>
  </defs>

  <rect x="0" y="0" width="512" height="512" rx="80" fill="url(#bgGrad)" stroke="#D4CBB3" stroke-width="4"/>

  <path d="M 40 420 Q 150 370 260 410 T 470 410" fill="none" stroke="#C8BFA8" stroke-width="3" opacity="0.6"/>

  <g transform="translate(80, 360)">
    <ellipse cx="0" cy="0" rx="70" ry="25" fill="#3D3935"/>
    <ellipse cx="-5" cy="-3" rx="55" ry="18" fill="#1A1815"/> </g>

  <g transform="translate(100, 310) rotate(-35)">
    <rect x="-6" y="-120" width="12" height="130" rx="4" fill="#C4A87A"/> <path d="M -8 10 Q -10 30 0 50 Q 10 30 8 10 Z" fill="#1A1815"/> <rect x="-7" y="5" width="14" height="6" fill="#333" rx="1"/> </g>

  <g transform="translate(380, 210)">
    <text x="0" y="-40" font-size="80" fill="url(#inkGrad)" text-anchor="middle"
          font-family="'STXingkai', 'KaiTi', serif" font-weight="bold">墨</text>
    <text x="0" y="60" font-size="80" fill="url(#inkGrad)" text-anchor="middle"
          font-family="'STXingkai', 'KaiTi', serif" font-weight="bold">宝</text>
  </g>


  <path d="M 50 430 Q 150 390 250 430 T 460 430" fill="none" stroke="#a09a88" stroke-width="3" stroke-linecap="round" opacity="0.4"/>

  <rect x="100" y="80" width="85" height="100" fill="#c4262b" rx="8"/> <g transform="translate(142.5, 80)">

    <text x="18" y="35" font-size="28" fill="white" font-family="'Kaiti', 'serif'" font-weight="bold" text-anchor="middle">山</text>

    <text x="18" y="75" font-size="28" fill="white" font-family="'Kaiti', 'serif'" font-weight="bold" text-anchor="middle">高</text>

    <text x="-18" y="35" font-size="28" fill="white" font-family="'Kaiti', 'serif'" font-weight="bold" text-anchor="middle">水</text>

    <text x="-18" y="75" font-size="28" fill="white" font-family="'Kaiti', 'serif'" font-weight="bold" text-anchor="middle">长</text>

  </g>

  <line x1="445" y1="80" x2="445" y2="340" stroke="#C13A3F" stroke-width="1.5" opacity="0.3"/>
</svg>
